{
DisplayStrings = (
A
);
date = "2013-05-07 17:01:52 +0000";
designer = "Shinji Pons";
designerURL = www.shinjipons.com;
familyName = "Modulo 32";
fontMaster = (
{
alignmentZones = (
"{128, 129}",
"{128, 129}",
"{128, 129}",
"{0, -2}",
"{0, -2}"
);
ascender = 128;
capHeight = 128;
customParameters = (
{
name = familyName;
value = "Modulo 22";
}
);
descender = 0;
guideLines = (
{
position = "{-25, 48}";
},
{
angle = 90;
position = "{88, 139}";
},
{
angle = 90;
position = "{56, 135}";
},
{
position = "{-18, 80}";
},
{
angle = 90;
position = "{40, 143}";
},
{
angle = 90;
position = "{104, 136}";
},
{
position = "{-22, 96}";
},
{
position = "{-20, 32}";
},
{
angle = 90;
position = "{136, -22}";
},
{
angle = 90;
position = "{8, -30}";
}
);
horizontalStems = (
32
);
id = "940E2F63-624A-4C3D-A909-721782B4CF41";
verticalStems = (
32
);
weightValue = 22;
widthValue = 128;
xHeight = 128;
}
);
glyphs = (
{
glyphname = A;
lastChange = "2013-06-01 20:00:20 +0200";
layers = (
{
layerId = "940E2F63-624A-4C3D-A909-721782B4CF41";
name = Regular;
paths = (
{
closed = 1;
nodes = (
"8 96 LINE",
"104 96 LINE",
"104 32 LINE",
"40 32 LINE",
"40 48 LINE",
"72 48 LINE",
"72 80 LINE",
"8 80 LINE",
"8 0 LINE",
"136 0 LINE",
"136 128 LINE",
"8 128 LINE"
);
},
{
closed = 1;
nodes = (
"80.8366 48 OFFCURVE",
"88 55.1634 OFFCURVE",
"88 64 CURVE SMOOTH",
"88 72.8366 OFFCURVE",
"80.8366 80 OFFCURVE",
"72 80 CURVE SMOOTH",
"63.1634 80 OFFCURVE",
"56 72.8366 OFFCURVE",
"56 64 CURVE SMOOTH",
"56 55.1634 OFFCURVE",
"63.1634 48 OFFCURVE",
"72 48 CURVE SMOOTH"
);
},
{
closed = 1;
nodes = (
"132.418 96 OFFCURVE",
"136 99.5817 OFFCURVE",
"136 104 CURVE SMOOTH",
"136 108.418 OFFCURVE",
"132.418 112 OFFCURVE",
"128 112 CURVE SMOOTH",
"123.582 112 OFFCURVE",
"120 108.418 OFFCURVE",
"120 104 CURVE SMOOTH",
"120 99.5817 OFFCURVE",
"123.582 96 OFFCURVE",
"128 96 CURVE SMOOTH"
);
},
{
closed = 1;
nodes = (
"132.418 112 OFFCURVE",
"136 115.582 OFFCURVE",
"136 120 CURVE SMOOTH",
"136 124.418 OFFCURVE",
"132.418 128 OFFCURVE",
"128 128 CURVE SMOOTH",
"123.582 128 OFFCURVE",
"120 124.418 OFFCURVE",
"120 120 CURVE SMOOTH",
"120 115.582 OFFCURVE",
"123.582 112 OFFCURVE",
"128 112 CURVE SMOOTH"
);
},
{
closed = 1;
nodes = (
"116.418 96 OFFCURVE",
"120 99.582 OFFCURVE",
"120 104 CURVE SMOOTH",
"120 108.418 OFFCURVE",
"116.418 112 OFFCURVE",
"112 112 CURVE SMOOTH",
"107.582 112 OFFCURVE",
"104 108.418 OFFCURVE",
"104 104 CURVE SMOOTH",
"104 99.582 OFFCURVE",
"107.582 96 OFFCURVE",
"112 96 CURVE SMOOTH"
);
},
{
closed = 1;
nodes = (
"116.418 112 OFFCURVE",
"120 115.582 OFFCURVE",
"120 120 CURVE SMOOTH",
"120 124.418 OFFCURVE",
"116.418 128 OFFCURVE",
"112 128 CURVE SMOOTH",
"107.582 128 OFFCURVE",
"104 124.418 OFFCURVE",
"104 120 CURVE SMOOTH",
"104 115.582 OFFCURVE",
"107.582 112 OFFCURVE",
"112 112 CURVE SMOOTH"
);
},
{
closed = 1;
nodes = (
"100.418 96 OFFCURVE",
"104 99.582 OFFCURVE",
"104 104 CURVE SMOOTH",
"104 108.418 OFFCURVE",
"100.418 112 OFFCURVE",
"96 112 CURVE SMOOTH",
"91.582 112 OFFCURVE",
"88 108.418 OFFCURVE",
"88 104 CURVE SMOOTH",
"88 99.582 OFFCURVE",
"91.582 96 OFFCURVE",
"96 96 CURVE SMOOTH"
);
},
{
closed = 1;
nodes = (
"100.418 112 OFFCURVE",
"104 115.582 OFFCURVE",
"104 120 CURVE SMOOTH",
"104 124.418 OFFCURVE",
"100.418 128 OFFCURVE",
"96 128 CURVE SMOOTH",
"91.582 128 OFFCURVE",
"88 124.418 OFFCURVE",
"88 120 CURVE SMOOTH",
"88 115.582 OFFCURVE",
"91.582 112 OFFCURVE",
"96 112 CURVE SMOOTH"
);
},
{
closed = 1;
nodes = (
"84.418 96 OFFCURVE",
"88 99.582 OFFCURVE",
"88 104 CURVE SMOOTH",
"88 108.418 OFFCURVE",
"84.418 112 OFFCURVE",
"80 112 CURVE SMOOTH",
"75.582 112 OFFCURVE",
"72 108.418 OFFCURVE",
"72 104 CURVE SMOOTH",
"72 99.582 OFFCURVE",
"75.582 96 OFFCURVE",
"80 96 CURVE SMOOTH"
);
},
{
closed = 1;
nodes = (
"84.418 112 OFFCURVE",
"88 115.582 OFFCURVE",
"88 120 CURVE SMOOTH",
"88 124.418 OFFCURVE",
"84.418 128 OFFCURVE",
"80 128 CURVE SMOOTH",
"75.582 128 OFFCURVE",
"72 124.418 OFFCURVE",
"72 120 CURVE SMOOTH",
"72 115.582 OFFCURVE",
"75.582 112 OFFCURVE",
"80 112 CURVE SMOOTH"
);
},
{
closed = 1;
nodes = (
"68.418 96 OFFCURVE",
"72 99.582 OFFCURVE",
"72 104 CURVE SMOOTH",
"72 108.418 OFFCURVE",
"68.418 112 OFFCURVE",
"64 112 CURVE SMOOTH",
"59.582 112 OFFCURVE",
"56 108.418 OFFCURVE",
"56 104 CURVE SMOOTH",
"56 99.582 OFFCURVE",
"59.582 96 OFFCURVE",
"64 96 CURVE SMOOTH"
);
},
{
closed = 1;
nodes = (
"68.418 112 OFFCURVE",
"72 115.582 OFFCURVE",
"72 120 CURVE SMOOTH",
"72 124.418 OFFCURVE",
"68.418 128 OFFCURVE",
"64 128 CURVE SMOOTH",
"59.582 128 OFFCURVE",
"56 124.418 OFFCURVE",
"56 120 CURVE SMOOTH",
"56 115.582 OFFCURVE",
"59.582 112 OFFCURVE",
"64 112 CURVE SMOOTH"
);
},
{
closed = 1;
nodes = (
"52.418 96 OFFCURVE",
"56 99.582 OFFCURVE",
"56 104 CURVE SMOOTH",
"56 108.418 OFFCURVE",
"52.418 112 OFFCURVE",
"48 112 CURVE SMOOTH",
"43.582 112 OFFCURVE",
"40 108.418 OFFCURVE",
"40 104 CURVE SMOOTH",
"40 99.582 OFFCURVE",
"43.582 96 OFFCURVE",
"48 96 CURVE SMOOTH"
);
},
{
closed = 1;
nodes = (
"52.418 112 OFFCURVE",
"56 115.582 OFFCURVE",
"56 120 CURVE SMOOTH",
"56 124.418 OFFCURVE",
"52.418 128 OFFCURVE",
"48 128 CURVE SMOOTH",
"43.582 128 OFFCURVE",
"40 124.418 OFFCURVE",
"40 120 CURVE SMOOTH",
"40 115.582 OFFCURVE",
"43.582 112 OFFCURVE",
"48 112 CURVE SMOOTH"
);
},
{
closed = 1;
nodes = (
"36.418 96 OFFCURVE",
"40 99.582 OFFCURVE",
"40 104 CURVE SMOOTH",
"40 108.418 OFFCURVE",
"36.418 112 OFFCURVE",
"32 112 CURVE SMOOTH",
"27.582 112 OFFCURVE",
"24 108.418 OFFCURVE",
"24 104 CURVE SMOOTH",
"24 99.582 OFFCURVE",
"27.582 96 OFFCURVE",
"32 96 CURVE SMOOTH"
);
},
{
closed = 1;
nodes = (
"36.418 112 OFFCURVE",
"40 115.582 OFFCURVE",
"40 120 CURVE SMOOTH",
"40 124.418 OFFCURVE",
"36.418 128 OFFCURVE",
"32 128 CURVE SMOOTH",
"27.582 128 OFFCURVE",
"24 124.418 OFFCURVE",
"24 120 CURVE SMOOTH",
"24 115.582 OFFCURVE",
"27.582 112 OFFCURVE",
"32 112 CURVE SMOOTH"
);
},
{
closed = 1;
nodes = (
"20.418 96 OFFCURVE",
"24 99.582 OFFCURVE",
"24 104 CURVE SMOOTH",
"24 108.418 OFFCURVE",
"20.418 112 OFFCURVE",
"16 112 CURVE SMOOTH",
"11.582 112 OFFCURVE",
"8 108.418 OFFCURVE",
"8 104 CURVE SMOOTH",
"8 99.582 OFFCURVE",
"11.582 96 OFFCURVE",
"16 96 CURVE SMOOTH"
);
},
{
closed = 1;
nodes = (
"20.418 112 OFFCURVE",
"24 115.582 OFFCURVE",
"24 120 CURVE SMOOTH",
"24 124.418 OFFCURVE",
"20.418 128 OFFCURVE",
"16 128 CURVE SMOOTH",
"11.582 128 OFFCURVE",
"8 124.418 OFFCURVE",
"8 120 CURVE SMOOTH",
"8 115.582 OFFCURVE",
"11.582 112 OFFCURVE",
"16 112 CURVE SMOOTH"
);
}
);
width = 144;
}
);
unicode = 0041;
},
{
glyphname = B;
lastChange = "2013-06-01 06:12:52 +0200";
layers = (
{
layerId = "940E2F63-624A-4C3D-A909-721782B4CF41";
name = Regular;
paths = (
{
closed = 1;
nodes = (
"8 128 LINE",
"8 0 LINE",
"40 0 LINE",
"40 96 LINE",
"104 96 LINE",
"104 80 LINE",
"56 80 LINE",
"56 48 LINE",
"104 48 LINE",
"104 32 LINE",
"56 32 LINE",
"56 0 LINE",
"136 0 LINE",
"136 128 LINE"
);
}
);
width = 144;
}
);
unicode = 0042;
},
{
glyphname = C;
lastChange = "2013-06-01 06:13:04 +0200";
layers = (
{
layerId = "940E2F63-624A-4C3D-A909-721782B4CF41";
name = Regular;
paths = (
{
closed = 1;
nodes = (
"8 0 LINE",
"8 128 LINE",
"136 128 LINE",
"136 96 LINE",
"40 96 LINE",
"40 32 LINE",
"136 32 LINE",
"136 0 LINE"
);
}
);
width = 144;
}
);
unicode = 0043;
},
{
glyphname = D;
lastChange = "2013-06-01 06:13:25 +0200";
layers = (
{
layerId = "940E2F63-624A-4C3D-A909-721782B4CF41";
name = Regular;
paths = (
{
closed = 1;
nodes = (
"136 128 LINE",
"8 128 LINE",
"8 96 LINE",
"104 96 LINE",
"104 32 LINE",
"40 32 LINE",
"40 80 LINE",
"8 80 LINE",
"8 0 LINE",
"136 0 LINE"
);
}
);
width = 144;
}
);
unicode = 0044;
},
{
glyphname = E;
lastChange = "2013-06-01 06:13:56 +0200";
layers = (
{
layerId = "940E2F63-624A-4C3D-A909-721782B4CF41";
name = Regular;
paths = (
{
closed = 1;
nodes = (
"136 48 LINE",
"136 128 LINE",
"56 128 LINE",
"56 96 LINE",
"104 96 LINE",
"104 80 LINE",
"40 80 LINE",
"40 128 LINE",
"8 128 LINE",
"8 0 LINE",
"136 0 LINE",
"136 32 LINE",
"40 32 LINE",
"40 48 LINE"
);
}
);
width = 144;
}
);
unicode = 0045;
},
{
glyphname = F;
lastChange = "2013-06-01 06:14:35 +0200";
layers = (
{
layerId = "940E2F63-624A-4C3D-A909-721782B4CF41";
name = Regular;
paths = (
{
closed = 1;
nodes = (
"40 0 LINE",
"40 48 LINE",
"136 48 LINE",
"136 80 LINE",
"40 80 LINE",
"40 96 LINE",
"136 96 LINE",
"136 128 LINE",
"8 128 LINE",
"8 0 LINE"
);
}
);
width = 144;
}
);
unicode = 0046;
},
{
glyphname = H;
lastChange = "2013-06-01 06:15:18 +0200";
layers = (
{
layerId = "940E2F63-624A-4C3D-A909-721782B4CF41";
name = Regular;
paths = (
{
closed = 1;
nodes = (
"104 128 LINE",
"104 80 LINE",
"40 80 LINE",
"40 128 LINE",
"8 128 LINE",
"8 0 LINE",
"40 0 LINE",
"40 48 LINE",
"104 48 LINE",
"104 0 LINE",
"136 0 LINE",
"136 128 LINE"
);
}
);
width = 144;
}
);
unicode = 0048;
},
{
glyphname = J;
lastChange = "2013-06-01 22:01:04 +0200";
layers = (
{
layerId = "940E2F63-624A-4C3D-A909-721782B4CF41";
name = Regular;
paths = (
{
closed = 1;
nodes = (
"56 128 LINE",
"56 96 LINE",
"104 96 LINE",
"104 32 LINE",
"8 32 LINE",
"8 0 LINE",
"136 0 LINE",
"136 128 LINE"
);
}
);
width = 144;
}
);
unicode = 004A;
},
{
glyphname = K;
lastChange = "2013-06-01 06:16:02 +0200";
layers = (
{
layerId = "940E2F63-624A-4C3D-A909-721782B4CF41";
name = Regular;
paths = (
{
closed = 1;
nodes = (
"136 96 LINE",
"136 128 LINE",
"56 128 LINE",
"56 80 LINE",
"40 80 LINE",
"40 128 LINE",
"8 128 LINE",
"8 0 LINE",
"40 0 LINE",
"40 48 LINE",
"104 48 LINE",
"104 0 LINE",
"136 0 LINE",
"136 80 LINE",
"88 80 LINE",
"88 96 LINE"
);
}
);
width = 144;
}
);
unicode = 004B;
},
{
glyphname = L;
lastChange = "2013-06-01 22:01:12 +0200";
layers = (
{
layerId = "940E2F63-624A-4C3D-A909-721782B4CF41";
name = Regular;
paths = (
{
closed = 1;
nodes = (
"136 0 LINE",
"136 32 LINE",
"40 32 LINE",
"40 128 LINE",
"8 128 LINE",
"8 0 LINE"
);
}
);
width = 144;
}
);
unicode = 004C;
},
{
glyphname = M;
lastChange = "2013-06-01 06:16:43 +0200";
layers = (
{
layerId = "940E2F63-624A-4C3D-A909-721782B4CF41";
name = Regular;
paths = (
{
closed = 1;
nodes = (
"8 128 LINE",
"8 0 LINE",
"40 0 LINE",
"40 96 LINE",
"56 96 LINE",
"56 0 LINE",
"88 0 LINE",
"88 96 LINE",
"104 96 LINE",
"104 0 LINE",
"136 0 LINE",
"136 128 LINE"
);
}
);
width = 144;
}
);
unicode = 004D;
},
{
glyphname = N;
lastChange = "2013-06-01 06:17:20 +0200";
layers = (
{
layerId = "940E2F63-624A-4C3D-A909-721782B4CF41";
name = Regular;
paths = (
{
closed = 1;
nodes = (
"104 128 LINE",
"104 32 LINE",
"88 32 LINE",
"88 128 LINE",
"8 128 LINE",
"8 0 LINE",
"40 0 LINE",
"40 96 LINE",
"56 96 LINE",
"56 0 LINE",
"136 0 LINE",
"136 128 LINE"
);
}
);
width = 144;
}
);
unicode = 004E;
},
{
glyphname = O;
lastChange = "2013-06-01 06:17:35 +0200";
layers = (
{
layerId = "940E2F63-624A-4C3D-A909-721782B4CF41";
name = Regular;
paths = (
{
closed = 1;
nodes = (
"8 128 LINE",
"8 0 LINE",
"136 0 LINE",
"136 128 LINE"
);
},
{
closed = 1;
nodes = (
"104 32 LINE",
"40 32 LINE",
"40 96 LINE",
"104 96 LINE"
);
}
);
width = 144;
}
);
unicode = 004F;
},
{
glyphname = P;
lastChange = "2013-06-01 06:18:00 +0200";
layers = (
{
layerId = "940E2F63-624A-4C3D-A909-721782B4CF41";
name = Regular;
paths = (
{
closed = 1;
nodes = (
"8 0 LINE",
"8 128 LINE",
"136 128 LINE",
"136 48 LINE",
"56 48 LINE",
"56 80 LINE",
"104 80 LINE",
"104 96 LINE",
"40 96 LINE",
"40 0 LINE"
);
}
);
width = 144;
}
);
unicode = 0050;
},
{
glyphname = Q;
lastChange = "2013-06-01 22:01:24 +0200";
layers = (
{
layerId = "940E2F63-624A-4C3D-A909-721782B4CF41";
name = Regular;
paths = (
{
closed = 1;
nodes = (
"8 128 LINE",
"8 0 LINE",
"136 0 LINE",
"136 128 LINE"
);
},
{
closed = 1;
nodes = (
"104 32 LINE",
"88 32 LINE",
"88 80 LINE",
"56 80 LINE",
"56 32 LINE",
"40 32 LINE",
"40 96 LINE",
"104 96 LINE"
);
}
);
width = 144;
}
);
unicode = 0051;
},
{
glyphname = R;
lastChange = "2013-06-01 06:22:15 +0200";
layers = (
{
layerId = "940E2F63-624A-4C3D-A909-721782B4CF41";
name = Regular;
paths = (
{
closed = 1;
nodes = (
"136 48 LINE",
"136 128 LINE",
"8 128 LINE",
"8 0 LINE",
"40 0 LINE",
"40 96 LINE",
"104 96 LINE",
"104 80 LINE",
"56 80 LINE",
"56 0 LINE",
"136 0 LINE",
"136 32 LINE",
"88 32 LINE",
"88 48 LINE"
);
}
);
width = 144;
}
);
unicode = 0052;
},
{
glyphname = T;
lastChange = "2013-06-01 22:01:42 +0200";
layers = (
{
layerId = "940E2F63-624A-4C3D-A909-721782B4CF41";
name = Regular;
paths = (
{
closed = 1;
nodes = (
"8 128 LINE",
"8 96 LINE",
"56 96 LINE",
"56 0 LINE",
"88 0 LINE",
"88 96 LINE",
"136 96 LINE",
"136 128 LINE"
);
}
);
width = 144;
}
);
unicode = 0054;
},
{
glyphname = V;
lastChange = "2013-06-01 06:23:11 +0200";
layers = (
{
layerId = "940E2F63-624A-4C3D-A909-721782B4CF41";
name = Regular;
paths = (
{
closed = 1;
nodes = (
"8 0 LINE",
"88 0 LINE",
"88 48 LINE",
"136 48 LINE",
"136 128 LINE",
"104 128 LINE",
"104 80 LINE",
"56 80 LINE",
"56 32 LINE",
"40 32 LINE",
"40 128 LINE",
"8 128 LINE"
);
}
);
width = 144;
}
);
unicode = 0056;
},
{
glyphname = X;
lastChange = "2013-06-01 22:02:23 +0200";
layers = (
{
layerId = "940E2F63-624A-4C3D-A909-721782B4CF41";
name = Regular;
paths = (
{
closed = 1;
nodes = (
"136 96 LINE",
"136 128 LINE",
"8 128 LINE",
"8 48 LINE",
"40 48 LINE",
"40 96 LINE",
"56 96 LINE",
"56 32 LINE",
"8 32 LINE",
"8 0 LINE",
"136 0 LINE",
"136 80 LINE",
"104 80 LINE",
"104 32 LINE",
"88 32 LINE",
"88 96 LINE"
);
}
);
width = 144;
}
);
unicode = 0058;
},
{
glyphname = Y;
lastChange = "2013-06-01 06:24:12 +0200";
layers = (
{
layerId = "940E2F63-624A-4C3D-A909-721782B4CF41";
name = Regular;
paths = (
{
closed = 1;
nodes = (
"104 128 LINE",
"104 80 LINE",
"40 80 LINE",
"40 128 LINE",
"8 128 LINE",
"8 48 LINE",
"104 48 LINE",
"104 32 LINE",
"8 32 LINE",
"8 0 LINE",
"136 0 LINE",
"136 128 LINE"
);
}
);
width = 144;
}
);
unicode = 0059;
},
{
glyphname = zero;
lastChange = "2013-06-01 06:24:37 +0200";
layers = (
{
components = (
{
name = O;
transform = "{1, 0, 0, 1, 0, 0}";
}
);
layerId = "940E2F63-624A-4C3D-A909-721782B4CF41";
name = Regular;
paths = (
{
closed = 1;
nodes = (
"56 48 LINE",
"88 48 LINE",
"88 80 LINE",
"56 80 LINE"
);
}
);
width = 144;
}
);
unicode = 0030;
},
{
glyphname = one;
lastChange = "2013-06-01 06:24:53 +0200";
layers = (
{
layerId = "940E2F63-624A-4C3D-A909-721782B4CF41";
name = Regular;
paths = (
{
closed = 1;
nodes = (
"88 32 LINE",
"88 128 LINE",
"8 128 LINE",
"8 96 LINE",
"56 96 LINE",
"56 32 LINE",
"8 32 LINE",
"8 0 LINE",
"136 0 LINE",
"136 32 LINE"
);
}
);
width = 144;
}
);
unicode = 0031;
},
{
glyphname = four;
lastChange = "2013-06-01 06:25:10 +0200";
layers = (
{
layerId = "940E2F63-624A-4C3D-A909-721782B4CF41";
name = Regular;
paths = (
{
closed = 1;
nodes = (
"104 128 LINE",
"104 80 LINE",
"40 80 LINE",
"40 128 LINE",
"8 128 LINE",
"8 48 LINE",
"104 48 LINE",
"104 0 LINE",
"136 0 LINE",
"136 128 LINE"
);
}
);
width = 144;
}
);
unicode = 0034;
},
{
glyphname = seven;
lastChange = "2013-06-01 06:25:38 +0200";
layers = (
{
layerId = "940E2F63-624A-4C3D-A909-721782B4CF41";
name = Regular;
paths = (
{
closed = 1;
nodes = (
"8 128 LINE",
"8 96 LINE",
"104 96 LINE",
"104 80 LINE",
"56 80 LINE",
"56 0 LINE",
"88 0 LINE",
"88 48 LINE",
"136 48 LINE",
"136 128 LINE"
);
}
);
width = 144;
}
);
unicode = 0037;
},
{
glyphname = eight;
lastChange = "2013-06-01 22:02:51 +0200";
layers = (
{
layerId = "940E2F63-624A-4C3D-A909-721782B4CF41";
name = Regular;
paths = (
{
closed = 1;
nodes = (
"8 128 LINE",
"8 0 LINE",
"136 0 LINE",
"136 128 LINE"
);
},
{
closed = 1;
nodes = (
"104 80 LINE",
"40 80 LINE",
"40 96 LINE",
"104 96 LINE"
);
},
{
closed = 1;
nodes = (
"104 32 LINE",
"40 32 LINE",
"40 48 LINE",
"104 48 LINE"
);
}
);
width = 144;
}
);
unicode = 0038;
},
{
glyphname = asterisk;
lastChange = "2013-06-01 06:26:19 +0200";
layers = (
{
components = (
{
name = plus;
transform = "{1, 0, 0, 1, 0, 0}";
}
);
layerId = "940E2F63-624A-4C3D-A909-721782B4CF41";
name = Regular;
paths = (
{
closed = 1;
nodes = (
"40 128 LINE",
"8 128 LINE",
"8 96 LINE",
"40 96 LINE"
);
},
{
closed = 1;
nodes = (
"104 128 LINE",
"104 96 LINE",
"136 96 LINE",
"136 128 LINE"
);
},
{
closed = 1;
nodes = (
"8 0 LINE",
"40 0 LINE",
"40 32 LINE",
"8 32 LINE"
);
},
{
closed = 1;
nodes = (
"104 0 LINE",
"136 0 LINE",
"136 32 LINE",
"104 32 LINE"
);
}
);
width = 144;
}
);
unicode = 002A;
},
{
glyphname = backslash;
lastChange = "2013-06-01 06:26:39 +0200";
layers = (
{
layerId = "940E2F63-624A-4C3D-A909-721782B4CF41";
name = Regular;
paths = (
{
closed = 1;
nodes = (
"8 0 LINE",
"40 0 LINE",
"40 128 LINE",
"8 128 LINE"
);
},
{
closed = 1;
nodes = (
"56 0 LINE",
"88 0 LINE",
"88 128 LINE",
"56 128 LINE"
);
},
{
closed = 1;
nodes = (
"104 0 LINE",
"136 0 LINE",
"136 128 LINE",
"104 128 LINE"
);
}
);
width = 144;
}
);
unicode = 005C;
},
{
glyphname = bullet;
lastChange = "2013-06-01 06:26:54 +0200";
layers = (
{
layerId = "940E2F63-624A-4C3D-A909-721782B4CF41";
name = Regular;
paths = (
{
closed = 1;
nodes = (
"8 128 LINE",
"8 96 LINE",
"136 96 LINE",
"136 128 LINE"
);
},
{
closed = 1;
nodes = (
"8 80 LINE",
"8 48 LINE",
"136 48 LINE",
"136 80 LINE"
);
},
{
closed = 1;
nodes = (
"8 32 LINE",
"8 0 LINE",
"136 0 LINE",
"136 32 LINE"
);
}
);
width = 144;
}
);
unicode = 2022;
},
{
glyphname = comma;
lastChange = "2013-05-10 03:48:47 +0200";
layers = (
{
layerId = "940E2F63-624A-4C3D-A909-721782B4CF41";
name = Regular;
paths = (
{
closed = 1;
nodes = (
"8 0 LINE",
"136 0 LINE",
"136 128 LINE",
"8 128 LINE"
);
}
);
width = 144;
}
);
unicode = 002C;
},
{
glyphname = ellipsis;
lastChange = "2013-06-01 06:27:44 +0200";
layers = (
{
layerId = "940E2F63-624A-4C3D-A909-721782B4CF41";
name = Regular;
paths = (
{
closed = 1;
nodes = (
"40 32 LINE",
"8 32 LINE",
"8 0 LINE",
"40 0 LINE"
);
},
{
closed = 1;
nodes = (
"8 128 LINE",
"8 96 LINE",
"136 96 LINE",
"136 128 LINE"
);
},
{
closed = 1;
nodes = (
"8 80 LINE",
"8 48 LINE",
"136 48 LINE",
"136 80 LINE"
);
},
{
closed = 1;
nodes = (
"88 32 LINE",
"56 32 LINE",
"56 0 LINE",
"88 0 LINE"
);
},
{
closed = 1;
nodes = (
"136 32 LINE",
"104 32 LINE",
"104 0 LINE",
"136 0 LINE"
);
}
);
width = 144;
}
);
unicode = 2026;
},
{
glyphname = exclam;
lastChange = "2013-06-01 06:28:41 +0200";
layers = (
{
layerId = "940E2F63-624A-4C3D-A909-721782B4CF41";
name = Regular;
paths = (
{
closed = 1;
nodes = (
"136 128 LINE",
"104 128 LINE",
"104 48 LINE",
"136 48 LINE"
);
},
{
closed = 1;
nodes = (
"88 128 LINE",
"56 128 LINE",
"56 48 LINE",
"88 48 LINE"
);
},
{
closed = 1;
nodes = (
"40 128 LINE",
"8 128 LINE",
"8 48 LINE",
"40 48 LINE"
);
},
{
closed = 1;
nodes = (
"40 32 LINE",
"8 32 LINE",
"8 0 LINE",
"40 0 LINE"
);
},
{
closed = 1;
nodes = (
"136 32 LINE",
"104 32 LINE",
"104 0 LINE",
"136 0 LINE"
);
},
{
closed = 1;
nodes = (
"88 32 LINE",
"56 32 LINE",
"56 0 LINE",
"88 0 LINE"
);
}
);
width = 144;
}
);
unicode = 0021;
},
{
glyphname = numbersign;
lastChange = "2013-06-01 06:29:37 +0200";
layers = (
{
layerId = "940E2F63-624A-4C3D-A909-721782B4CF41";
name = Regular;
paths = (
{
closed = 1;
nodes = (
"8 128 LINE",
"8 0 LINE",
"136 0 LINE",
"136 128 LINE"
);
},
{
closed = 1;
nodes = (
"40 96 LINE",
"56 96 LINE",
"56 80 LINE",
"40 80 LINE"
);
},
{
closed = 1;
nodes = (
"104 80 LINE",
"88 80 LINE",
"88 96 LINE",
"104 96 LINE"
);
},
{
closed = 1;
nodes = (
"40 32 LINE",
"40 48 LINE",
"56 48 LINE",
"56 32 LINE"
);
},
{
closed = 1;
nodes = (
"104 32 LINE",
"88 32 LINE",
"88 48 LINE",
"104 48 LINE"
);
}
);
width = 144;
}
);
unicode = 0023;
},
{
glyphname = question;
lastChange = "2013-06-01 06:30:04 +0200";
layers = (
{
layerId = "940E2F63-624A-4C3D-A909-721782B4CF41";
name = Regular;
paths = (
{
closed = 1;
nodes = (
"8 128 LINE",
"8 96 LINE",
"104 96 LINE",
"104 80 LINE",
"56 80 LINE",
"56 48 LINE",
"136 48 LINE",
"136 128 LINE"
);
},
{
closed = 1;
nodes = (
"88 32 LINE",
"56 32 LINE",
"56 0 LINE",
"88 0 LINE"
);
}
);
width = 144;
}
);
unicode = 003F;
},
{
glyphname = braceleft;
lastChange = "2013-06-01 06:30:37 +0200";
layers = (
{
layerId = "940E2F63-624A-4C3D-A909-721782B4CF41";
name = Regular;
paths = (
{
closed = 1;
nodes = (
"136 96 LINE",
"136 128 LINE",
"56 128 LINE",
"56 80 LINE",
"8 80 LINE",
"8 48 LINE",
"56 48 LINE",
"56 0 LINE",
"136 0 LINE",
"136 32 LINE",
"88 32 LINE",
"88 96 LINE"
);
}
);
width = 144;
}
);
unicode = 007B;
},
{
glyphname = divide;
lastChange = "2013-06-01 06:31:19 +0200";
layers = (
{
components = (
{
name = minus;
transform = "{1, 0, 0, 1, 0, 0}";
}
);
layerId = "940E2F63-624A-4C3D-A909-721782B4CF41";
name = Regular;
paths = (
{
closed = 1;
nodes = (
"56 128 LINE",
"56 96 LINE",
"88 96 LINE",
"88 128 LINE"
);
},
{
closed = 1;
nodes = (
"56 32 LINE",
"56 0 LINE",
"88 0 LINE",
"88 32 LINE"
);
}
);
width = 144;
}
);
unicode = 00F7;
},
{
glyphname = minus;
lastChange = "2013-06-01 06:30:58 +0200";
layers = (
{
layerId = "940E2F63-624A-4C3D-A909-721782B4CF41";
name = Regular;
paths = (
{
closed = 1;
nodes = (
"8 80 LINE",
"8 48 LINE",
"136 48 LINE",
"136 80 LINE"
);
}
);
width = 144;
}
);
unicode = 2212;
},
{
glyphname = plus;
lastChange = "2013-06-01 06:28:11 +0200";
layers = (
{
layerId = "940E2F63-624A-4C3D-A909-721782B4CF41";
name = Regular;
paths = (
{
closed = 1;
nodes = (
"136 80 LINE",
"88 80 LINE",
"88 128 LINE",
"56 128 LINE",
"56 80 LINE",
"8 80 LINE",
"8 48 LINE",
"56 48 LINE",
"56 0 LINE",
"88 0 LINE",
"88 48 LINE",
"136 48 LINE"
);
}
);
width = 144;
}
);
unicode = 002B;
},
{
glyphname = ampersand;
lastChange = "2013-06-01 06:32:38 +0200";
layers = (
{
layerId = "940E2F63-624A-4C3D-A909-721782B4CF41";
name = Regular;
paths = (
{
closed = 1;
nodes = (
"56 128 LINE",
"56 80 LINE",
"8 80 LINE",
"8 0 LINE",
"136 0 LINE",
"136 32 LINE",
"40 32 LINE",
"40 48 LINE",
"136 48 LINE",
"136 128 LINE"
);
},
{
closed = 1;
nodes = (
"104 96 LINE",
"104 80 LINE",
"88 80 LINE",
"88 96 LINE"
);
}
);
width = 144;
}
);
unicode = 0026;
},
{
glyphname = degree;
lastChange = "2013-06-01 06:33:33 +0200";
layers = (
{
layerId = "940E2F63-624A-4C3D-A909-721782B4CF41";
name = Regular;
paths = (
{
closed = 1;
nodes = (
"88 128 LINE",
"8 128 LINE",
"8 48 LINE",
"88 48 LINE"
);
},
{
closed = 1;
nodes = (
"104 32 LINE",
"56 32 LINE",
"56 0 LINE",
"136 0 LINE",
"136 80 LINE",
"104 80 LINE"
);
},
{
closed = 1;
nodes = (
"56 96 LINE",
"56 80 LINE",
"40 80 LINE",
"40 96 LINE"
);
}
